<svg width="80" height="80" viewBox="0 0 80 80" fill="none" xmlns="http://www.w3.org/2000/svg">
<path d="M18.7507 23.7507C21.5119 23.7507 23.7506 21.512 23.7506 18.7508C23.7506 15.9896 21.5119 13.7509 18.7507 13.7509C15.989 13.7509 13.7508 15.9896 13.7508 18.7508C13.7508 21.512 15.989 23.7507 18.7507 23.7507ZM18.7507 16.2508C20.1311 16.2508 21.2507 17.3704 21.2507 18.7508C21.2507 20.1316 20.1311 21.2507 18.7507 21.2507C17.3699 21.2507 16.2508 20.1316 16.2508 18.7508C16.2508 17.3704 17.3699 16.2508 18.7507 16.2508Z" fill="#69B99D"/>
<path d="M17.5007 36.2505C17.5007 33.4893 15.262 31.2506 12.5008 31.2506C9.73913 31.2506 7.50089 33.4893 7.50089 36.2505C7.50089 39.0117 9.73913 41.2504 12.5008 41.2504C15.262 41.2504 17.5007 39.0117 17.5007 36.2505ZM10.0008 36.2505C10.0008 34.8702 11.12 33.7506 12.5008 33.7506C13.8812 33.7506 15.0008 34.8702 15.0008 36.2505C15.0008 37.6314 13.8812 38.7505 12.5008 38.7505C11.12 38.7505 10.0008 37.6314 10.0008 36.2505Z" fill="#69B99D"/>
<path d="M15.0007 48.7504C12.239 48.7504 10.0008 50.9891 10.0008 53.7503C10.0008 56.5115 12.239 58.7502 15.0007 58.7502C17.7619 58.7502 20.0006 56.5115 20.0006 53.7503C20.0006 50.9891 17.7619 48.7504 15.0007 48.7504ZM15.0007 56.2503C13.6199 56.2503 12.5008 55.1311 12.5008 53.7503C12.5008 52.3699 13.6199 51.2503 15.0007 51.2503C16.3811 51.2503 17.5007 52.3699 17.5007 53.7503C17.5007 55.1311 16.3811 56.2503 15.0007 56.2503Z" fill="#69B99D"/>
<path d="M61.25 23.7507C64.0111 23.7507 66.2499 21.512 66.2499 18.7508C66.2499 15.9896 64.0111 13.7509 61.25 13.7509C58.4883 13.7509 56.25 15.9896 56.25 18.7508C56.25 21.512 58.4883 23.7507 61.25 23.7507ZM61.25 16.2508C62.6303 16.2508 63.7499 17.3704 63.7499 18.7508C63.7499 20.1316 62.6303 21.2507 61.25 21.2507C59.8691 21.2507 58.75 20.1316 58.75 18.7508C58.75 17.3704 59.8691 16.2508 61.25 16.2508Z" fill="#69B99D"/>
<path d="M62.5 36.2505C62.5 39.0117 64.7382 41.2504 67.4999 41.2504C70.2611 41.2504 72.4998 39.0117 72.4998 36.2505C72.4998 33.4893 70.2611 31.2506 67.4999 31.2506C64.7382 31.2506 62.5 33.4893 62.5 36.2505ZM69.9999 36.2505C69.9999 37.6314 68.8803 38.7505 67.4999 38.7505C66.1191 38.7505 65 37.6314 65 36.2505C65 34.8702 66.1191 33.7506 67.4999 33.7506C68.8803 33.7506 69.9999 34.8702 69.9999 36.2505Z" fill="#69B99D"/>
<path d="M70.8528 45.6591C75.3791 44.0527 78.1208 39.4522 77.3796 34.7066C76.6379 29.9616 72.6238 26.4162 67.8231 26.2673C71.9143 22.6907 72.3958 16.4999 68.9071 12.3339C65.4179 8.16751 59.2388 7.55473 55.0001 10.9551V3.75108C55.0001 3.06115 54.4405 2.5011 53.7501 2.5011H26.2505C25.5601 2.5011 25.0006 3.06115 25.0006 3.75108V10.9736C20.7672 7.56352 14.5832 8.16849 11.0906 12.3335C7.598 16.4989 8.08042 22.6932 12.1765 26.2673C7.37633 26.4162 3.36223 29.9616 2.62055 34.7066C1.87886 39.4522 4.62051 44.0527 9.14681 45.6591C5.49599 48.2977 4.06144 53.053 5.6454 57.2697C7.22838 61.4865 11.4383 64.1227 15.9236 63.7057C20.4083 63.2887 24.0601 59.922 24.8389 55.4856C26.2564 57.4611 28.002 59.1794 30.0005 60.5656V67.5H18.7507C15.3005 67.5044 12.5042 70.2998 12.5008 73.7499V76.2499C12.5008 76.9403 13.0603 77.4999 13.7507 77.4999H66.2499C66.9403 77.4999 67.4999 76.9403 67.4999 76.2499V73.7499C67.4955 70.2998 64.6996 67.5044 61.25 67.5H50.0002V60.5656C51.9977 59.1794 53.7437 57.4611 55.1612 55.4856C55.9322 59.9328 59.5874 63.3121 64.0815 63.733C68.5751 64.1544 72.7947 61.5128 74.3777 57.2854C75.9616 53.0589 74.5173 48.2953 70.8528 45.6591ZM74.9997 36.2505C74.9997 40.3926 71.6414 43.7504 67.4999 43.7504C63.3574 43.7504 60 40.3926 60 36.2505C60 32.109 63.3574 28.7507 67.4999 28.7507C71.6399 28.7551 74.9954 32.11 74.9997 36.2505ZM58.6773 31.5534C58.2769 30.2936 57.7813 29.0671 57.1949 27.8835C58.3716 28.4064 59.6387 28.696 60.9258 28.7346C60.0127 29.5309 59.2505 30.486 58.6773 31.5534ZM61.25 11.251C65.2328 11.2461 68.5257 14.3564 68.7469 18.3343C68.9681 22.3118 66.0419 25.7683 62.082 26.2058C58.1226 26.6428 54.5118 23.9085 53.86 19.9784C54.5015 19.9276 54.9962 19.3944 55.0001 18.7508V14.6264C56.3765 12.5146 58.729 11.2446 61.25 11.251ZM52.5001 17.5009H46.2502V5.00106H52.5001V17.5009ZM43.7503 5.00106V17.5009H36.2504V5.00106H43.7503ZM21.3224 31.5534C20.7487 30.4855 19.9865 29.5309 19.0729 28.7346C20.36 28.6955 21.6271 28.4064 22.8038 27.8835C22.2179 29.0676 21.7228 30.2946 21.3224 31.5534ZM27.5005 5.00106H33.7504V17.5009H27.5005V5.00106ZM11.2508 18.7508C11.2454 15.4389 13.4158 12.5166 16.5881 11.5644C19.7609 10.6128 23.1817 11.8579 25.0006 14.6264V18.7508C25.0035 19.3944 25.4991 19.9276 26.1402 19.9784C25.4786 23.8054 22.0045 26.4934 18.134 26.1741C14.2639 25.8552 11.2771 22.6346 11.2508 18.7508ZM5.00088 36.2505C5.00088 32.109 8.35825 28.7507 12.5008 28.7507C16.6423 28.7507 20.0006 32.109 20.0006 36.2505C20.0006 40.3926 16.6423 43.7504 12.5008 43.7504C8.3602 43.7465 5.0043 40.3911 5.00088 36.2505ZM15.0007 61.2501C10.8582 61.2501 7.50084 57.8923 7.50084 53.7503C7.50084 49.6087 10.8582 46.2504 15.0007 46.2504C19.1423 46.2504 22.5006 49.6087 22.5006 53.7503C22.4962 57.8908 19.1408 61.2462 15.0007 61.2501ZM18.3537 44.3422C19.0124 43.8652 19.612 43.311 20.1378 42.6919C20.2272 43.6196 20.3605 44.5326 20.5387 45.4311C19.8586 44.9794 19.1242 44.6137 18.3537 44.3422ZM48.0798 58.842C47.7185 59.0715 47.4997 59.4699 47.5002 59.8976V68.75C47.5002 69.4404 48.0598 70 48.7502 70H61.25C63.3207 70 64.9999 71.6792 64.9999 73.7499V74.9999H15.0007V73.7499C15.0007 71.6792 16.6789 70 18.7507 70H31.2505C31.9409 70 32.5004 69.4404 32.5004 68.75V59.8927C32.5004 59.4645 32.2817 59.0661 31.9199 58.8366C26.1099 55.1492 22.5006 47.932 22.5006 40.0005C22.3746 33.5934 24.9244 27.4226 29.5352 22.972C29.1094 25.7136 28.8467 28.4782 28.7505 31.2506C28.7505 31.941 29.3101 32.5006 30.0005 32.5006C30.6909 32.5006 31.2505 31.941 31.2505 31.2506C31.4194 27.7785 31.7954 24.3191 32.3754 20.8909C32.9321 20.5594 33.5073 20.262 34.1 20.0008H34.7904C34.2016 23.7249 33.8534 27.4826 33.7504 31.2506C33.7504 31.941 34.31 32.5006 35.0004 32.5006C35.6908 32.5006 36.2504 31.941 36.2504 31.2506C36.3651 27.4821 36.722 23.7239 37.3202 20.0008H38.7503V31.2506C38.7503 31.941 39.3099 32.5006 40.0003 32.5006C40.6907 32.5006 41.2503 31.941 41.2503 31.2506V20.0008H42.6804C43.2776 23.7239 43.635 27.4821 43.7503 31.2506C43.7503 31.941 44.3098 32.5006 45.0002 32.5006C45.6907 32.5006 46.2502 31.941 46.2502 31.2506C46.1462 27.4826 45.7991 23.7249 45.2102 20.0008H45.8987C46.4924 20.262 47.07 20.5594 47.6276 20.8909C48.2067 24.3191 48.5817 27.7785 48.7502 31.2506C48.7502 31.941 49.3097 32.5006 50.0002 32.5006C50.6906 32.5006 51.2501 31.941 51.2501 31.2506C51.153 28.4782 50.8913 25.7136 50.465 22.972C55.0762 27.4226 57.625 33.5934 57.5 40.0005C57.5 47.932 53.8897 55.1492 48.0798 58.8366V58.842ZM59.8618 42.6919C60.3887 43.311 60.9873 43.8652 61.646 44.3422C60.876 44.6137 60.1421 44.9794 59.4609 45.4311C59.6387 44.5331 59.7725 43.6201 59.8618 42.6919ZM64.9999 61.2501C60.8574 61.2501 57.5 57.8923 57.5 53.7503C57.5 49.6087 60.8574 46.2504 64.9999 46.2504C69.1414 46.2504 72.4998 49.6087 72.4998 53.7503C72.4954 57.8908 69.14 61.2462 64.9999 61.2501Z" fill="#69B99D"/>
<path d="M64.9999 48.7504C62.2383 48.7504 60 50.9891 60 53.7503C60 56.5115 62.2383 58.7502 64.9999 58.7502C67.7611 58.7502 69.9999 56.5115 69.9999 53.7503C69.9999 50.9891 67.7611 48.7504 64.9999 48.7504ZM64.9999 56.2503C63.6191 56.2503 62.5 55.1311 62.5 53.7503C62.5 52.3699 63.6191 51.2503 64.9999 51.2503C66.3803 51.2503 67.4999 52.3699 67.4999 53.7503C67.4999 55.1311 66.3803 56.2503 64.9999 56.2503Z" fill="#69B99D"/>
<path d="M37.1342 37.8668C36.6459 37.3795 35.8544 37.3795 35.3666 37.8668C34.4667 38.8429 33.2006 39.3985 31.8735 39.3985C30.5459 39.3985 29.2798 38.8429 28.3799 37.8668C27.8887 37.3942 27.1094 37.4025 26.6275 37.8859C26.1465 38.3692 26.1417 39.1485 26.6167 39.6383C28.0601 41.0689 29.9927 41.8985 32.0239 41.9595C33.9731 41.9185 35.8207 41.0791 37.1342 39.6383C37.369 39.4039 37.5013 39.0851 37.5013 38.7525C37.5013 38.4205 37.369 38.1012 37.1342 37.8668Z" fill="#69B99D"/>
<path d="M53.3839 37.8668C52.8956 37.3795 52.1041 37.3795 51.6163 37.8668C50.7164 38.8429 49.4503 39.3985 48.1232 39.3985C46.7956 39.3985 45.5295 38.8429 44.6296 37.8668C44.1384 37.3942 43.3591 37.4025 42.8772 37.8859C42.3962 38.3692 42.3914 39.1485 42.8664 39.6383C44.3098 41.0689 46.2424 41.8985 48.2736 41.9595C50.2228 41.9185 52.0704 41.0791 53.3839 39.6383C53.6187 39.4039 53.751 39.0851 53.751 38.7525C53.751 38.4205 53.6187 38.1012 53.3839 37.8668Z" fill="#69B99D"/>
<path d="M44.1165 49.1166C40.1473 53.0838 36.3114 49.5365 35.8817 49.1166C35.3905 48.6439 34.6103 48.6517 34.1293 49.1346C33.6479 49.6171 33.6415 50.3973 34.1166 50.8866C35.7309 52.4881 37.8934 53.4173 40.1663 53.4856C42.3475 53.4388 44.4143 52.4993 45.884 50.8866C46.3576 50.3958 46.3508 49.6166 45.8689 49.1346C45.3865 48.6522 44.6067 48.6454 44.1165 49.119V49.1166Z" fill="#69B99D"/>
</svg>
